<?xml version="1.0" encoding="UTF-8" standalone="no"?>
<!-- Created with Inkscape (http://www.inkscape.org/) -->

<svg
   xmlns:dc="http://purl.org/dc/elements/1.1/"
   xmlns:cc="http://creativecommons.org/ns#"
   xmlns:rdf="http://www.w3.org/1999/02/22-rdf-syntax-ns#"
   xmlns:svg="http://www.w3.org/2000/svg"
   xmlns="http://www.w3.org/2000/svg"
   xmlns:xlink="http://www.w3.org/1999/xlink"
   xmlns:sodipodi="http://sodipodi.sourceforge.net/DTD/sodipodi-0.dtd"
   xmlns:inkscape="http://www.inkscape.org/namespaces/inkscape"
   width="640"
   height="1136"
   id="svg2"
   version="1.1"
   inkscape:version="0.48.2 r9819"
   sodipodi:docname="splash-568h.svg">
  <defs
     id="defs4">
    <linearGradient
       id="linearGradient4734">
      <stop
         style="stop-color:#d1d1d1;stop-opacity:1;"
         offset="0"
         id="stop4736" />
      <stop
         id="stop4742"
         offset="0.5"
         style="stop-color:#ffffff;stop-opacity:1;" />
      <stop
         style="stop-color:#eeeeee;stop-opacity:1;"
         offset="1"
         id="stop4738" />
    </linearGradient>
    <path
       d="M 15,83 C 93,14 186,0 265,0 C 425,0 545,156 485,292 S 190,445 190,525 S 370,610 490,505 V 655 C 435,690 370,720 260,720 S -35,615 30,460 S 330,300 330,220 S 150,120 15,245 z"
       id="S" />
    <path
       d="M 0,0 h 180 v 434 L 504,0 h 180 v 720 h -180 v -434 L 180 720 h -180 z"
       id="N" />
    <path
       d="M 0 360 a 408,360,0 0,0 816,0 a 408,360,0 0,0 -816,0 M 204,360 a 204,204,0 0,1 408,0 a 204,204,0 0,1 -408,0"
       id="O" />
    <path
       d="M 684,504 a 276,204,0 1,1 0,-288 V 60 a 432,360,0 1,0 0 600 z"
       id="C" />
    <path
       d="M 0,0 h 196 l 194,453 l 194,-453 h 196 l -300,720 h -180 z M 180,120 h 450 v 120 h -450z"
       id="A" />
    <path
       d="M 0,0 h 360 a 360,360,0 0,1 0,720 h -360 z M 180,150 v 420 h 120 a 210,210,0 0,0 0,-420 z"
       id="D" />
    <path
       d="M 0,0 h 520 v 150 h -340 v 150 h 340 v150 h -340 v 120 h 340 v 150 h -520 z"
       id="E" />
    <path
       d="M 0,0 h 180 v 466 l 220,-220 l 220,220 V 0 h 180 v 720 h -180 l -220,-220 l -220,220 h -180 z"
       id="M" />
    <path
       d="M  0,0 h 180 v 720 h -180 z M 90,360 l 360,-360 h 255 l -360,360 l 360,360 h -255 z"
       id="K" />
    <path
       d="M 0,0 h 180 v 720 h -180 z"
       id="I" />
    <path
       d="M 0,720 L 320,0 h 144 l 195,438.75 l 195,-438.75 h 144 l 320,720 h -197 l -195,-438.75 l -195,438.75 h -144 l -195,-438.75 l -195,438.75 z"
       id="W" />
    <clipPath
       id="boundary">
      <circle
         id="circle3819"
         r="298" />
    </clipPath>
    <linearGradient
       inkscape:collect="always"
       xlink:href="#linearGradient4734"
       id="linearGradient4740"
       x1="313.80472"
       y1="1049.349"
       x2="313.80472"
       y2="-81.603363"
       gradientUnits="userSpaceOnUse" />
  </defs>
  <sodipodi:namedview
     id="base"
     pagecolor="#ffffff"
     bordercolor="#666666"
     borderopacity="1.0"
     inkscape:pageopacity="0.0"
     inkscape:pageshadow="2"
     inkscape:zoom="0.49497475"
     inkscape:cx="-89.637446"
     inkscape:cy="520"
     inkscape:document-units="px"
     inkscape:current-layer="layer1"
     showgrid="false"
     inkscape:window-width="1920"
     inkscape:window-height="1036"
     inkscape:window-x="0"
     inkscape:window-y="22"
     inkscape:window-maximized="1" />
  <metadata
     id="metadata7">
    <rdf:RDF>
      <cc:Work
         rdf:about="">
        <dc:format>image/svg+xml</dc:format>
        <dc:type
           rdf:resource="http://purl.org/dc/dcmitype/StillImage" />
        <dc:title></dc:title>
      </cc:Work>
    </rdf:RDF>
  </metadata>
  <g
     inkscape:label="Layer 1"
     inkscape:groupmode="layer"
     id="layer1"
     transform="translate(0,83.637817)">
    <rect
       style="fill:url(#linearGradient4740);fill-opacity:1;stroke:none"
       id="rect3964"
       width="640"
       height="1136"
       x="0"
       y="-83.637817" />
    <g
       id="g3911"
       transform="matrix(0.3901988,0,0,0.3901988,320,484.36218)">
      <circle
         id="circle3821"
         r="100"
         cx="0"
         cy="0"
         sodipodi:cx="0"
         sodipodi:cy="0"
         sodipodi:rx="100"
         sodipodi:ry="100"
         style="fill:#970000;stroke:none"
         d="M 100,0 C 100,55.228475 55.228475,100 0,100 -55.228475,100 -100,55.228475 -100,0 c 0,-55.228475 44.771525,-100 100,-100 55.228475,0 100,44.771525 100,100 z" />
      <g
         id="g3823"
         style="fill:#006499;stroke:#006499">
        <g
           id="g3825"
           clip-path="url(#boundary)">
          <g
             id="arrow">
            <line
               id="line3828"
               y2="180"
               x2="0"
               y1="300"
               x1="0"
               style="stroke-width:22" />
            <path
               id="path3830"
               d="M -43,185 0,110 43,185 z"
               inkscape:connector-curvature="0"
               style="stroke:none" />
          </g>
          <g
             id="three_arrows_lhs">
            <use
               id="use3833"
               transform="matrix(0.70710678,0.70710678,-0.70710678,0.70710678,0,0)"
               xlink:href="#arrow"
               x="0"
               y="0"
               width="1"
               height="1" />
            <use
               id="use3835"
               transform="matrix(0,1,-1,0,0,0)"
               xlink:href="#arrow"
               x="0"
               y="0"
               width="1"
               height="1" />
            <use
               id="use3837"
               transform="matrix(-0.70710678,0.70710678,-0.70710678,-0.70710678,0,0)"
               xlink:href="#arrow"
               x="0"
               y="0"
               width="1"
               height="1" />
          </g>
          <use
             id="use3839"
             transform="scale(-1,1)"
             xlink:href="#three_arrows_lhs"
             x="0"
             y="0"
             width="1"
             height="1" />
        </g>
        <path
           d="M 0,-256 A 256,256 0 1 0 256,0 c 0,-100 -101,-150 -6,-275"
           transform="matrix(0.70710678,-0.70710678,0.70710678,0.70710678,0,0)"
           id="blue_path"
           inkscape:connector-curvature="0"
           style="fill:none;stroke-width:84" />
        <path
           d="m -23,-515 c 0,0 -36,135 -80,185 -44,50 116,-62 170,-5 54,57 -90,-180 -90,-180 z"
           id="arrow_top"
           inkscape:connector-curvature="0"
           style="stroke:none" />
      </g>
      <g
         id="g3856"
         style="fill:#666666">
        <g
           id="g3858"
           transform="matrix(0.11111111,0,0,-0.11111111,-370.55556,415)">
          <use
             id="use3860"
             xlink:href="#W"
             x="0"
             y="0"
             width="1"
             height="1" />
          <use
             id="use3862"
             x="1440"
             xlink:href="#I"
             y="0"
             width="1"
             height="1" />
          <use
             id="use3864"
             x="1860"
             xlink:href="#K"
             y="0"
             width="1"
             height="1" />
          <use
             id="use3866"
             x="2680"
             xlink:href="#I"
             y="0"
             width="1"
             height="1" />
          <use
             id="use3868"
             x="3100"
             xlink:href="#M"
             y="0"
             width="1"
             height="1" />
          <use
             id="use3870"
             x="4080"
             xlink:href="#E"
             y="0"
             width="1"
             height="1" />
          <use
             id="use3872"
             x="4780"
             xlink:href="#D"
             y="0"
             width="1"
             height="1" />
          <use
             id="use3874"
             x="5610"
             xlink:href="#I"
             y="0"
             width="1"
             height="1" />
          <use
             id="use3876"
             x="5890"
             xlink:href="#A"
             y="0"
             width="1"
             height="1" />
        </g>
        <g
           id="g3878"
           transform="matrix(0.11111111,0,0,-0.11111111,-325.55556,515)">
          <use
             id="use3880"
             xlink:href="#C"
             x="0"
             y="0"
             width="1"
             height="1" />
          <use
             id="use3882"
             x="768"
             xlink:href="#O"
             y="0"
             width="1"
             height="1" />
          <use
             id="use3884"
             x="1686"
             xlink:href="#M"
             y="0"
             width="1"
             height="1" />
          <use
             id="use3886"
             x="2666"
             xlink:href="#M"
             y="0"
             width="1"
             height="1" />
          <use
             id="use3888"
             x="3574"
             xlink:href="#O"
             y="0"
             width="1"
             height="1" />
          <use
             id="use3890"
             x="4492"
             xlink:href="#N"
             y="0"
             width="1"
             height="1" />
          <use
             id="use3892"
             x="5357"
             xlink:href="#S"
             y="0"
             width="1"
             height="1" />
        </g>
      </g>
    </g>
  </g>
</svg>
