<?xml version="1.0" standalone="no"?>
<!DOCTYPE svg PUBLIC "-//W3C//DTD SVG 1.1//EN" "http://www.w3.org/Graphics/SVG/1.1/DTD/svg11.dtd">
<svg width="120px" height="120px" version="1.1" xmlns="http://www.w3.org/2000/svg" xmlns:xlink="http://www.w3.org/1999/xlink" xml:space="preserve" style="fill-rule:evenodd;clip-rule:evenodd;stroke-linejoin:round;stroke-miterlimit:1.41421;">
    <g>
        <g id="Layer1">
            <g id="Layer3">
                <rect x="-0.749579" y="-10.6816" width="127.233" height="138.212" style="fill:rgb(4,134,255);"/>
            </g>
            <g id="Layer11">
                <g>
                    <path d="M44.534,66.3542L44.5347,66.3542L44.6237,90.201L78.2177,90.201L78.2177,56.6071C78.2177,56.6071 70.4726,56.7688 66.6052,56.6071C54.8469,56.1155 54.9926,44.546 54.9926,44.546L54.9926,37.6444L44.0587,37.6444L61.0751,10.9984L78.0914,37.6444L67.8488,37.6444L67.8488,43.7509L79.4613,43.7509C79.4613,43.7509 91.0587,42.5949 91.0454,55.9412C91.0338,67.624 91.0064,84.3876 91.0738,90.7158C91.2179,104.233 77.8873,103.057 77.8873,103.057L44.6237,103.057C44.6237,103.057 31.7276,103.738 31.7676,89.4511C31.7928,80.4374 31.628,68.2394 31.6048,66.578L31.6032,66.578L31.6032,66.4617L31.6021,66.3878L31.6032,66.3878L31.6032,65.3626C31.6032,63.7962 32.8729,62.5265 34.4393,62.5265L41.6979,62.5265C43.2643,62.5265 44.534,63.7962 44.534,65.3626L44.534,66.3542Z" style="fill:white;"/>
                </g>
            </g>
        </g>
    </g>
</svg>
